Coordinates
version=1
nRows=32
nColumns=12
inDegrees=yes

Units are S.I. units (second, meters, Newtons, ...)
Angles are in degrees

endheader
time	SC_y	SC_z	SC_x	AC_y	AC_z	AC_x	GH_y	GH_z	GH_yy	EL_x	PS_y
       0.0              -11.71          21.41          16.93          64.93         -10.77          18.98          139.3          69.14         -116.0          12.21          98.69
   0.01306              -11.72          21.41          16.93          64.93         -10.77          18.97          139.3          69.14         -116.0          12.21          98.68
   0.02612              -11.73          21.41          16.93          64.92         -10.77          18.97          139.3          69.13         -116.0          12.21          98.68
   0.03919              -11.74          21.41          16.93          64.92         -10.77          18.96          139.3          69.13         -115.9          12.22          98.67
   0.05225              -11.74          21.41          16.94          64.92         -10.77          18.96          139.3          69.13         -115.9          12.22          98.66
   0.06531              -11.75          21.41          16.94          64.91         -10.77          18.96          139.3          69.13         -115.9          12.22          98.65
   0.07837              -11.76          21.42          16.94          64.91         -10.77          18.95          139.3          69.12         -115.9          12.23          98.64
   0.09143              -11.77          21.42          16.94          64.91         -10.77          18.94          139.3          69.12         -115.8          12.23          98.64
    0.1045              -11.78          21.42          16.94           64.9         -10.77          18.94          139.3          69.11         -115.8          12.24          98.63
    0.1176              -11.79          21.42          16.94           64.9         -10.77          18.93          139.3          69.11         -115.8          12.24          98.61
    0.1306               -11.8          21.43          16.94          64.89         -10.77          18.93          139.2          69.11         -115.7          12.25           98.6
    0.1437              -11.81          21.43          16.94          64.89         -10.77          18.92          139.2           69.1         -115.7          12.26          98.59
    0.1567              -11.83          21.43          16.94          64.88         -10.77          18.91          139.2           69.1         -115.6          12.26          98.58
    0.1698              -11.84          21.43          16.94          64.87         -10.77           18.9          139.2          69.09         -115.6          12.27          98.56
    0.1829              -11.86          21.44          16.94          64.87         -10.77           18.9          139.2          69.08         -115.5          12.28          98.54
    0.1959              -11.88          21.44          16.94          64.86         -10.77          18.89          139.2          69.08         -115.5          12.29          98.53
     0.209              -11.89          21.45          16.94          64.85         -10.77          18.88          139.2          69.07         -115.4           12.3          98.51
    0.2221              -11.91          21.45          16.94          64.84         -10.77          18.86          139.2          69.06         -115.3          12.31          98.49
    0.2351              -11.94          21.46          16.95          64.83         -10.77          18.85          139.2          69.05         -115.2          12.32          98.46
    0.2482              -11.96          21.46          16.95          64.82         -10.77          18.84          139.2          69.05         -115.2          12.33          98.44
    0.2612              -11.99          21.47          16.95          64.81         -10.77          18.82          139.2          69.04         -115.1          12.34          98.41
    0.2743              -12.02          21.47          16.95           64.8         -10.77          18.81          139.1          69.02         -115.0          12.36          98.38
    0.2874              -12.05          21.48          16.95          64.78         -10.77          18.79          139.1          69.01         -114.9          12.37          98.35
    0.3004              -12.08          21.49          16.95          64.77         -10.77          18.77          139.1           69.0         -114.7          12.39          98.31
    0.3135              -12.12           21.5          16.95          64.75         -10.77          18.75          139.1          68.98         -114.6          12.41          98.27
    0.3265              -12.17          21.51          16.96          64.73         -10.77          18.72          139.1          68.97         -114.5          12.43          98.23
    0.3396              -12.22          21.52          16.96          64.71         -10.77          18.69          139.0          68.95         -114.3          12.46          98.18
    0.3527              -12.27          21.53          16.96          64.68         -10.77          18.66          139.0          68.92         -114.1          12.49          98.12
    0.3657              -12.34          21.55          16.97          64.65         -10.77          18.63          139.0           68.9         -113.9          12.52          98.06
    0.3788              -12.41          21.56          16.97          64.62         -10.77          18.59          139.0          68.87         -113.6          12.55          97.98
    0.3919              -12.49          21.58          16.97          64.59         -10.77          18.54          138.9          68.84         -113.3           12.6           97.9
    0.4049              -12.59          21.61          16.98          64.54         -10.77          18.49          138.9          68.81         -113.0          12.64           97.8
